PathFileType	4	(X/Y/Z)	25_coords_data.trc
DataRate	CameraRate	NumFrames	NumMarkers	Units	OrigDataRate	OrigDataStartFrame	OrigNumFrames
30.0	30.0	6	21	m	30.0	33	65
Frame#	Time	THUMB_TIP	THUMB_IP	THUMB_MCP	THUMB_CMC	INDEX_TIP	INDEX_DIP	INDEX_PIP	INDEX_MCP	MIDDLE_TIP	MIDDLE_DIP	MIDDLE_PIP	MIDDLE_MCP	RING_TIP	RING_DIP	RING_PIP	RING_MCP	PINKY_TIP	PINKY_DIP	PINKY_PIP	PINKY_MCP	WRIST
X1	Y1	Z1	X2	Y2	Z2	X3	Y3	Z3	X4	Y4	Z4	X5	Y5	Z5	X6	Y6	Z6	X7	Y7	Z7	X8	Y8	Z8	X9	Y9	Z9	X10	Y10	Z10	X11	Y11	Z11	X12	Y12	Z12	X13	Y13	Z13	X14	Y14	Z14	X15	Y15	Z15	X16	Y16	Z16	X17	Y17	Z17	X18	Y18	Z18	X19	Y19	Z19	X20	Y20	Z20	X21	Y21	Z21
32	1.0666666666666667	-0.01705780029296875	0.04959410095214844	0.9037630004882813	-0.017835599899291992	0.02511370086669922	0.9085449829101563	-0.03552959823608398	0.010468199729919433	0.9298980102539063	-0.0525166015625	0.022129600524902343	0.953281982421875	-0.04696870040893555	0.013629799842834472	0.9118150024414062	-0.030602100372314454	0.014980199813842774	0.9018720092773438	-0.02933880043029785	0.012546400070190429	0.8796909790039062	-0.07105359649658204	0.011596099853515625	0.889551025390625	-0.033674301147460936	0.028917999267578126	0.9145789794921875	-0.03222570037841797	0.03143779945373535	0.910510009765625	-0.02917720031738281	0.03436989974975586	0.884614013671875	-0.07386840057373047	0.03510860061645508	0.8890070190429687	-0.039270599365234374	0.0411614990234375	0.9241060180664062	-0.03449290084838867	0.044609298706054686	0.9171619873046875	-0.028671300888061524	0.051424598693847655	0.8928519897460937	-0.07095850372314454	0.05489720153808594	0.8967349853515625	-0.040402099609375	0.05436790084838867	0.9293460083007813	-0.028757499694824218	0.056685199737548826	0.9196259765625	-0.028490499496459962	0.06438300323486328	0.9037230224609375	-0.06148669815063477	0.0693843994140625	0.9088909912109375	-0.08609269714355469	0.036094200134277346	0.9757429809570313
33	1.1	-0.01634239959716797	0.048777698516845706	0.9025499877929688	-0.01762070083618164	0.02458060073852539	0.9080089721679687	-0.03578089904785156	0.009701629638671876	0.9295430297851562	-0.05276810073852539	0.021998199462890625	0.9531799926757812	-0.047019798278808596	0.0137475004196167	0.911655029296875	-0.030702699661254884	0.014662199974060059	0.9015419921875	-0.029628299713134767	0.01198009967803955	0.8794080200195312	-0.07127880096435547	0.011411299705505371	0.8896380004882812	-0.034165199279785154	0.028619300842285155	0.9144970092773438	-0.032384899139404295	0.030978099822998047	0.9098159790039062	-0.02944179916381836	0.03390999984741211	0.8842509765625	-0.07397480010986328	0.03494729995727539	0.8889219970703125	-0.03942739868164063	0.040924301147460936	0.9240339965820312	-0.034508399963378907	0.044315898895263675	0.9165809936523438	-0.02888920021057129	0.05113410186767578	0.8922949829101563	-0.0709614028930664	0.0546708984375	0.8965560302734376	-0.04059830093383789	0.05471490097045899	0.9274840087890625	-0.028513200759887697	0.05648820114135742	0.9189559936523437	-0.028686700820922853	0.06415480041503906	0.9028679809570312	-0.06154729843139648	0.06914859771728515	0.9085919799804687	-0.08575769805908204	0.03598040008544922	0.9759140014648438
34	1.1333333333333333	-0.014849599838256835	0.047804500579833986	0.9007830200195313	-0.017580999374389648	0.02385390090942383	0.9072890014648437	-0.036035400390625	0.00960381031036377	0.92947998046875	-0.0530817985534668	0.021983999252319336	0.9530380249023438	-0.04724359893798828	0.013570400238037109	0.9110230102539062	-0.030877899169921875	0.014483499526977538	0.9011129760742187	-0.03014620018005371	0.01149899959564209	0.878822998046875	-0.07148269653320312	0.011088199615478515	0.889656005859375	-0.034073200225830075	0.028503900527954103	0.9136389770507812	-0.032375499725341796	0.0310039005279541	0.90910302734375	-0.0297091007232666	0.033696800231933596	0.8833619995117188	-0.07436049652099609	0.034574699401855466	0.8889860229492188	-0.03851449966430664	0.040409698486328124	0.9222360229492188	-0.03457009887695312	0.04426869964599609	0.915697998046875	-0.029580699920654298	0.05097010040283203	0.8909199829101563	-0.07151789855957032	0.05447069931030273	0.8961480102539062	-0.04021500015258789	0.054394798278808595	0.9270560302734375	-0.028607099533081055	0.056606201171875	0.9177830200195313	-0.02957200050354004	0.06425499725341798	0.9016309814453125	-0.062124000549316404	0.06907129669189453	0.907864990234375	-0.0858687973022461	0.03603139877319336	0.9759110107421874
35	1.1666666666666667	-0.011952199935913087	0.04555500030517578	0.8982230224609375	-0.017252700805664063	0.02238800048828125	0.9068619995117188	-0.03638119888305664	0.009410969734191895	0.9297570190429687	-0.05359109878540039	0.02199329948425293	0.9528709716796875	-0.04700619888305664	0.013704899787902833	0.9103480224609375	-0.03043009948730469	0.014616600036621094	0.8996069946289063	-0.030791099548339845	0.011383000373840333	0.877198974609375	-0.07171389770507812	0.011034899711608887	0.8898159790039063	-0.035325401306152346	0.028487400054931642	0.9144010009765625	-0.03223049926757812	0.03124650001525879	0.9077490234375	-0.030346399307250978	0.03403290176391602	0.881447021484375	-0.07478389739990235	0.03443600082397461	0.8888150024414062	-0.04074610137939453	0.04101129913330078	0.9228909912109375	-0.03470370101928711	0.04444900131225586	0.9144099731445312	-0.03048629951477051	0.051379398345947264	0.8894760131835937	-0.07225319671630859	0.05449509811401367	0.8960910034179688	-0.040219898223876956	0.05453990173339844	0.9258699951171875	-0.0284906005859375	0.05719419860839844	0.9158280029296875	-0.03073189926147461	0.06487760162353516	0.899926025390625	-0.06309460067749023	0.06911100006103515	0.907031982421875	-0.08605079650878907	0.03613190078735352	0.9759769897460937
36	1.2	-0.006754539966583252	0.03985079956054687	0.894906005859375	-0.016189699172973634	0.018759599685668947	0.9065280151367188	-0.03690399932861328	0.008227729797363281	0.9296370239257813	-0.05464950180053711	0.02180780029296875	0.9526799926757813	-0.04385639953613281	0.014482099533081055	0.9098489990234375	-0.028948200225830077	0.01475349998474121	0.8978980102539063	-0.03197489929199219	0.011073399543762207	0.8745009765625	-0.07207070159912109	0.011273699760437012	0.8894149780273437	-0.03647740173339844	0.02816710090637207	0.9146859741210938	-0.030641300201416016	0.03144939994812012	0.90568798828125	-0.030984399795532226	0.03429999923706055	0.8795449829101563	-0.07531240081787109	0.03467300033569336	0.8887960205078125	-0.042864898681640624	0.04099069976806641	0.9247379760742187	-0.03364659881591797	0.04481560134887695	0.9128610229492188	-0.031489099502563477	0.051829200744628906	0.8876010131835937	-0.07272850036621094	0.0548588981628418	0.896041015625	-0.039570098876953126	0.054800800323486325	0.9235819702148438	-0.027873100280761717	0.058152000427246095	0.9127570190429688	-0.03225490188598633	0.06592430114746094	0.8972839965820313	-0.06397050094604492	0.0696511001586914	0.906385009765625	-0.08634349822998047	0.03635499954223633	0.9760239868164062
37	1.2333333333333334	-0.001006729960441589	0.029723100662231446	0.8922689819335937	-0.015237600326538085	0.01284809970855713	0.9067020263671876	-0.03789749908447266	0.00628879976272583	0.929927978515625	-0.05586399841308594	0.02128619956970215	0.9525859985351562	-0.03919449996948242	0.015626700401306152	0.9090430297851563	-0.025248699188232422	0.015476300239562988	0.8931799926757813	-0.033633800506591795	0.01084060001373291	0.8709530029296875	-0.07219920349121094	0.01156410026550293	0.889760009765625	-0.03830089950561524	0.02796310043334961	0.915791015625	-0.028649999618530275	0.03188890075683594	0.903531982421875	-0.032185501098632815	0.03487009811401367	0.8761829833984375	-0.07580699920654296	0.035189701080322267	0.8890269775390625	-0.04301679992675781	0.04141329956054687	0.9239459838867188	-0.03134539985656738	0.04562860107421875	0.9102680053710938	-0.03305519866943359	0.05252360153198242	0.8841909790039062	-0.07337629699707031	0.05547750091552734	0.8962589721679688	-0.0383656005859375	0.055901798248291015	0.9205330200195313	-0.026802200317382813	0.06019100189208984	0.9085609741210937	-0.03475080108642578	0.06791480255126953	0.893968994140625	-0.06535659790039063	0.0705823974609375	0.9061790161132812	-0.08675189971923829	0.03665309906005859	0.9762849731445312
